<?xml version="1.0" encoding="UTF-8" standalone="no"?>
<svg viewBox="0 0 360 190" xmlns="http://www.w3.org/2000/svg" xmlns:xlink="http://www.w3.org/1999/xlink">
  <title>Jaxo Animated Logo</title>

  <style>
    .pendrawn {
      fill:none;
      stroke:#39599e;
      stroke-width:5;
      stroke-linecap:round;
      stroke-linejoin:round;
      stroke-miterlimit:4;
      stroke-opacity:1;
    }
    .dasharray910 { stroke-dasharray:910,910; }
    .dasharray915 { stroke-dasharray:915,915; }
  </style>
<!--
     transform="translate(-173.41421,-150)">
-->
  <g id="layer1"
     transform="translate(-170,-130)">
    <path id="logobody" class='pendrawn dasharray910'
       d="m 179.62858,221.88154 c 0,0 5.39317,-5.91434 8.25979,-8.70359 3.61765,-3.52002 7.41168,-6.85898 11.26487,-10.11947 3.98995,-3.37621 8.05738,-6.66837 12.2645,-9.76976 3.96058,-2.91965 8.05995,-5.65098 12.20106,-8.30838 3.5871,-2.30189 7.25777,-4.47287 10.9458,-6.60932 3.32672,-1.92715 6.6676,-3.83504 10.08358,-5.59917 4.71839,-2.43674 9.51255,-4.73201 14.36929,-6.8798 5.26438,-2.32805 10.62329,-4.44039 15.99656,-6.50472 4.84717,-1.86221 9.70338,-3.71542 14.64721,-5.3033 5.32841,-1.7114 10.71158,-3.27723 16.16244,-4.54569 2.25133,-0.5239 4.52503,-0.97488 6.81853,-1.26269 1.25565,-0.15757 2.52311,-0.28909 3.78808,-0.25253 0.67839,0.0196 1.43731,-0.0949 2.0203,0.25253 0.62205,0.37072 0.92929,1.12495 1.26269,1.76777 0.82125,1.58342 1.27379,3.3368 1.76777,5.05076 1.07845,3.74193 1.85857,7.56669 2.60114,11.38947 0.70883,3.64902 1.23764,7.33144 1.76776,11.01067 0.72978,5.06493 1.42189,10.13758 1.94455,15.22805 0.77614,7.55928 1.32703,15.1422 1.76777,22.72843 0.50814,8.74638 0.96869,17.50294 1.01015,26.26396 0.0275,5.81076 -0.0997,11.62848 -0.50508,17.42514 -0.31906,4.56251 -0.90322,9.10452 -1.51522,13.63705 -0.50185,3.71675 -1.01076,7.4384 -1.76777,11.11168 -0.55221,2.67952 -1.17372,5.3534 -2.02031,7.95495 -0.77152,2.37089 -1.67001,4.71122 -2.77792,6.9448 -1.5268,3.07806 -3.18879,6.13063 -5.3033,8.83884 -1.02569,1.31367 -2.23123,2.49795 -3.53553,3.53553 -1.24296,0.98879 -2.59563,1.86606 -4.04061,2.52538 -1.12145,0.5117 -2.3279,0.83691 -3.53553,1.08412 -1.327,0.27164 -2.68705,0.38029 -4.04061,0.43111 -2.69316,0.10111 -5.41688,0.15312 -8.08123,-0.25254 -1.55468,-0.23671 -3.08481,-0.68053 -4.54568,-1.26269 -1.54131,-0.61421 -3.02655,-1.39731 -4.39775,-2.33149 -1.28279,-0.87394 -2.51205,-1.8635 -3.53554,-3.03045 -1.17737,-1.3424 -2.14953,-2.87907 -2.92585,-4.48704 -0.81016,-1.67806 -1.42544,-3.47163 -1.76777,-5.30331 -0.55283,-2.95802 -0.61608,-6.01386 -0.43111,-9.0174 0.14331,-2.32701 0.51146,-4.66162 1.18873,-6.8925 0.99454,-3.27594 2.5405,-6.37577 4.17585,-9.38352 3.21541,-5.91382 7.04732,-11.4884 11.0213,-16.9216 4.41908,-6.04173 9.23235,-11.79851 14.21981,-17.38026 4.70131,-5.26149 9.70157,-10.25462 14.77721,-15.156 2.70061,-2.60789 5.51382,-5.09777 8.33376,-7.57615 5.19622,-4.56683 10.41684,-9.11243 15.81654,-13.43678 5.11439,-4.09586 10.40529,-7.96799 15.69262,-11.83802 4.5876,-3.35787 9.22168,-6.65347 13.9069,-9.87373 4.64706,-3.19403 9.41043,-6.21577 14.08549,-9.36866 2.20172,-1.48486 4.36653,-3.02423 6.5765,-4.49678 1.5732,-1.04825 3.18076,-2.04423 4.75696,-3.08797 1.38911,-0.91985 4.14198,-2.79746 4.14198,-2.79746 l 1.4491,-1.06068 0.42682,-0.40847 c 0,0 0.43322,0.27459 0.54911,0.49108 0.24831,0.46384 0.33507,1.0484 0.22321,1.56249 -0.0996,0.45781 -0.42647,0.85292 -0.75893,1.18304 -0.94918,0.9425 -2.20142,1.53478 -3.39285,2.14285 -1.14204,0.58287 -2.32261,1.13797 -3.57143,1.42858 -0.7559,0.1759 -1.57381,0.38688 -2.32143,0.17857 -0.49325,-0.13744 -0.93641,-0.48808 -1.25,-0.89286 -0.47117,-0.60817 -0.74361,-1.38919 -0.82973,-2.15369 -0.15358,-1.36323 0.16512,-2.7683 0.58803,-4.07334 0.4261,-1.3149 1.15737,-2.52361 1.92729,-3.67154 0.84219,-1.25567 1.78175,-2.47452 2.91579,-3.47448 0.91541,-0.80718 1.94048,-1.53979 3.07719,-1.98409 0.43713,-0.17086 0.92178,-0.30294 1.3871,-0.24171 0.47047,0.0619 1.01173,0.21556 1.29147,0.59885 0.56583,0.77527 0.39825,1.89823 0.35714,2.85714 -0.0481,1.12292 -0.0457,1.96955 6.6e-4,3.47898 0.0273,0.89027 0.0979,1.67064 0.28952,2.48084 0.36627,1.54839 0.85468,3.09689 1.62947,4.48662 0.57264,1.02713 1.1939,2.13882 2.1875,2.76785 0.67099,0.42479 1.52761,0.5128 2.32143,0.53571 0.61869,0.0179 1.25811,-0.0766 1.83035,-0.3125 2.7601,-1.13761 4.75104,-3.6413 7.32647,-5.1511 2.28142,-1.33746 4.74642,-2.33537 7.15183,-3.43433 3.09996,-1.41628 6.20609,-2.82709 9.37947,-4.07017 3.08406,-1.20809 6.21012,-2.31738 9.37687,-3.28825 3.15341,-0.96677 6.31844,-1.95753 9.56812,-2.52166 0.67511,-0.1172 1.36684,-0.25102 2.048,-0.17672 0.64728,0.0706 1.31089,0.24026 1.86416,0.58354 0.9572,0.5939 1.67262,1.53147 2.33675,2.44135 0.88683,1.21499 1.4827,2.61929 2.15369,3.96556 0.6486,1.30135 1.27281,2.61784 1.80738,3.97003 0.65674,1.66122 1.26143,3.34935 1.71492,5.07715 0.36662,1.39682 0.59029,2.82876 0.80806,4.25638 0.32397,2.1238 0.56763,4.26102 0.74045,6.40242 0.16727,2.07262 0.28847,4.15215 0.28634,6.23151 -0.002,1.86226 -0.12755,3.72339 -0.26786,5.58036 -0.1747,2.31221 -0.35661,4.62859 -0.71429,6.91965 -0.18997,1.21688 -0.40411,2.43667 -0.75893,3.61607 -0.21811,0.72499 -0.4436,1.46465 -0.83738,2.11128 -0.2886,0.47391 -0.61395,0.97559 -1.09309,1.25542 -0.5478,0.31994 -1.23126,0.42657 -1.86417,0.3833 -0.53529,-0.0366 -1.08908,-0.21319 -1.51786,-0.53572 -0.4092,-0.30781 -0.6856,-0.78178 -0.89286,-1.25 -0.21104,-0.47675 -0.2812,-1.0097 -0.33098,-1.52868 -0.12166,-1.26821 -0.0931,-2.5595 0.0839,-3.82118 0.16279,-1.16044 0.49702,-2.29722 0.89286,-3.40014 0.35433,-0.98725 0.81984,-1.93438 1.31855,-2.85714 0.53398,-0.98803 1.17996,-1.91141 1.78571,-2.85714 0.61441,-0.95925 1.23957,-1.91169 1.875,-2.85715 0.73212,-1.08932 1.5466,-2.1244 2.23215,-3.24361 0.79406,-1.29637 1.44633,-2.67444 2.17218,-4.0102 0.73246,-1.34793 1.52802,-2.66313 2.20282,-4.04083 0.62142,-1.26874 1.22911,-2.55071 1.69643,-3.88393 0.34149,-0.97426 0.62797,-1.97373 0.80357,-2.99106 0.16505,-0.95618 0.36211,-1.94039 0.23087,-2.90179 -0.0772,-0.5652 -0.23068,-1.16249 -0.58801,-1.60715 -0.32519,-0.40467 -0.81263,-0.69955 -1.31313,-0.83739 -0.52369,-0.14423 -1.10373,-0.0898 -1.62882,0.0492 -0.67035,0.1775 -1.28464,0.55656 -1.83802,0.97448 -0.44478,0.33591 -0.8334,0.75325 -1.15754,1.20668 -0.38694,0.54127 -0.69464,1.14604 -0.91583,1.77355 -0.47479,1.34698 -0.71828,2.77672 -0.85587,4.19829 -0.12097,1.24975 0.002,2.51139 0.0306,3.76665 0.0287,1.25853 10e-4,2.5229 0.14158,3.7739 0.16262,1.4496 0.18539,2.98196 0.80898,4.30064 0.21789,0.46077 0.59014,0.8462 0.98215,1.17194 0.75822,0.63004 1.65511,1.10117 2.57621,1.45248 0.9109,0.34742 1.88789,0.52024 2.85715,0.62502 1.15399,0.12475 2.32749,0.11843 3.48214,0 1.23968,-0.12715 2.46103,-0.42166 3.66071,-0.75893 1.44547,-0.40636 2.85421,-0.94241 4.24107,-1.51786 1.18659,-0.49235 2.31994,-1.10433 3.48214,-1.65178 0.92145,-0.43404 1.848,-0.85725 2.76786,-1.29464 0.83954,-0.3992 1.65898,-0.84165 2.51096,-1.21356 0.77845,-0.33981 1.53006,-0.8238 2.37296,-0.92853 0.45078,-0.056 0.95163,-0.0437 1.35198,0.17093 0.53916,0.28904 0.82578,0.90468 1.19956,1.38896 0.49933,0.64695 0.87725,1.38311 1.38896,2.02031 0.54075,0.67335 1.10943,1.33509 1.76776,1.89403 0.69411,0.58932 1.4497,1.12598 2.27285,1.51523 0.91478,0.43258 1.91322,0.67912 2.90419,0.88388 0.71478,0.14769 1.37264,0.27612 2.1759,0.24488 0.82466,-0.0321 2.40676,-0.44194 2.6593,-0.44194 0.25254,0 1.37683,-0.49669 2.02797,-0.90238 0.56313,-0.35084 1.16406,-0.79678 1.59685,-1.29967 0.438,-0.50894 0.76589,-1.10767 1.07329,-1.70463 0.38401,-0.74575 0.7935,-1.50514 0.95468,-2.32832 0.20268,-1.03514 0.19669,-2.12957 -0.008,-3.16438 -0.21578,-1.09269 -0.67006,-2.15056 -1.26269,-3.0936 -0.46776,-0.74434 -0.87642,-1.38206 -1.49991,-2.00181 -0.58013,-0.57665 -1.39822,-1.16693 -2.09876,-1.58919 -0.88466,-0.53324 -1.89685,-0.8524 -2.90419,-1.08095 -1.04843,-0.23787 -2.13714,-0.29453 -3.2122,-0.28952 -1.18689,0.006 -2.38111,0.11121 -3.54319,0.35265 -0.86033,0.17875 -1.69698,0.47224 -2.51006,0.80543 -0.57241,0.23457 -1.12656,0.51749 -1.65682,0.83607 -0.75076,0.45105 -1.48333,0.94323 -2.14658,1.51523 -0.4847,0.41801 -0.9594,0.86417 -1.32582,1.38896 -0.33101,0.47409 -0.57377,1.01112 -0.76528,1.55669 -0.1759,0.50109 -0.29219,1.02696 -0.34499,1.5554 -0.0643,0.64314 -0.0346,1.29631 0.037,1.93867 0.081,0.72603 0.25624,1.44004 0.44194,2.14658 0.15734,0.59861 0.56821,1.76776 0.56821,1.76776 l 0.0631,0.12627"
    >
      <animate attributeName="stroke-dashoffset" from="910" to="0" dur="1s" begin="0s"/>
    </path>
    <path class='pendrawn dasharray915' id="logodot" stroke-dashoffset="915" transform="translate(6.6291261,-3.6239222)"
       d="m 328.00917,137.80795 c 0,0.34171 -0.31658,0.61872 -0.70711,0.61872 -0.39052,0 -0.7071,-0.27701 -0.7071,-0.61872 0,-0.34171 0.31658,-0.61872 0.7071,-0.61872 0.39053,0 0.70711,0.27701 0.70711,0.61872 z"
    >
      <animate attributeName="stroke-dashoffset" from="915" to="0" dur="0.1s" begin="1.1s" fill="freeze"/>
    </path>
  </g>
<!--
<script type="text/javascript">
  alert(
    "logo body array size: " + document.getElementById('logobody').getTotalLength() + "\n" +
    "logo dot array size: " + document.getElementById('logodot').getTotalLength()
  );
</script>
-->
</svg>
